# written by convert_mb_to_amc()
:FULLY-SPECIFIED
:DEGREES
61
upperback -4.258660 -11.054400 4.081200
rfoot -26.098301 -10.836100
lradius 16.702999
lthumb 4.932640 56.737400
rradius 22.698400
lwrist -31.250500
rhand -39.589100 -49.699200
rhumerus -68.810600 -34.067699 6.811870
lowerneck -2.419490 10.055300 6.027190
lhand -21.457500 26.814800
ltibia 75.163101
head 1.660310 6.665520 -2.751250
rwrist 4.018490
lfingers 7.125020
rtoes 12.454000
lowerback -3.868800 -8.391800 2.325730
rfingers 7.125020
lclavicle 0.000000 -0.000000
upperneck 1.000550 13.409300 -6.585810
rfemur -21.674999 9.715100 20.107700
thorax -1.889120 -5.479660 2.655500
rclavicle 0.000000 -0.000000
rtibia 51.236301
lfoot 8.000400 10.454100
lhumerus 76.651901 29.085600 52.381802
rthumb -12.571700 -79.301003
root 42.119331 17.825455 -0.695006 559.124023 93.820602 -159.712006
ltoes 7.637570
lfemur -16.222000 -4.038390 -19.806101
62
upperback -4.323493 -9.944260 4.313622
rfoot -29.103302 -13.871137
lradius 16.979792
lthumb 5.006714 57.865295
rradius 22.207052
lwrist -31.212299
rhand -39.225838 -51.197594
rhumerus -71.353554 -34.556305 6.366775
lowerneck -1.296632 10.635976 5.862090
lhand -21.380785 27.944433
ltibia 79.889534
head 0.754081 7.081095 -3.180002
rwrist 5.030761
lfingers 7.125020
rtoes 12.749980
lowerback -3.353189 -7.586676 3.462011
rfingers 7.125020
lclavicle 0.000000 0.000000
upperneck -1.596415 14.169135 -7.664234
rfemur -15.004383 12.270864 21.936241
thorax -2.426971 -4.938738 2.409070
rclavicle 0.000000 0.000000
rtibia 49.673042
lfoot 8.487368 16.038624
lhumerus 79.579369 29.630678 52.619194
rthumb -12.221364 -80.820587
root 43.117378 17.828985 -0.387495 561.021179 94.896660 -156.055771
ltoes 13.434473
lfemur -32.324738 -2.771831 -20.877893
63
upperback -4.605683 -8.866477 4.441325
rfoot -31.164566 -14.413316
lradius 17.851513
lthumb 5.060804 57.418644
rradius 21.882589
lwrist -28.225101
rhand -39.294357 -52.220390
rhumerus -75.013733 -33.732735 6.633993
lowerneck -0.188844 11.482118 5.982204
lhand -21.324720 27.499102
ltibia 77.003471
head -0.427663 7.641586 -3.328192
rwrist 5.125143
lfingers 7.125020
rtoes 11.669997
lowerback -3.554162 -6.792854 4.606856
rfingers 7.125020
lclavicle -0.000000 0.000000
upperneck -4.914445 15.226960 -7.552106
rfemur -10.715507 13.722185 21.870611
thorax -2.783366 -4.419834 1.946104
rclavicle -0.000000 0.000000
rtibia 49.376671
lfoot 7.590848 22.033003
lhumerus 80.828735 30.638329 49.161640
rthumb -12.287485 -81.839394
root 43.780807 17.773050 -0.394703 560.348022 97.096619 -155.108780
ltoes 10.134222
lfemur -33.490063 -8.375932 -20.241482
64
upperback -5.182927 -8.265903 4.924656
rfoot -32.457237 -13.483062
lradius 18.163628
lthumb 2.417824 56.154106
rradius 21.743023
lwrist -27.728165
rhand -39.380257 -52.017365
rhumerus -76.743874 -32.498363 7.269454
lowerneck 0.767083 12.202703 5.890530
lhand -24.061640 26.188107
ltibia 78.039719
head -2.113083 8.099526 -3.192105
rwrist 4.838707
lfingers 7.125020
rtoes 11.393589
lowerback -3.922349 -6.381130 5.308881
rfingers 7.125020
lclavicle -0.000000 0.000000
upperneck -9.404513 16.213108 -6.243699
rfemur -8.021679 14.761309 21.171232
thorax -3.215062 -4.123107 2.073017
rclavicle -0.000000 0.000000
rtibia 49.090702
lfoot 12.730240 21.256727
lhumerus 82.873642 33.021488 48.225563
rthumb -12.370342 -81.631363
root 44.155529 17.744827 -0.439582 560.048279 99.097366 -154.230927
ltoes 12.298438
lfemur -32.573750 -8.218163 -20.893040
65
upperback -5.769646 -8.027709 5.065137
rfoot -33.354786 -13.391957
lradius 18.508602
lthumb 0.136383 55.330551
rradius 21.988569
lwrist -28.434872
rhand -39.355141 -51.657330
rhumerus -76.695503 -31.747314 6.845251
lowerneck 0.721141 12.288305 5.498607
lhand -26.423819 25.350849
ltibia 77.117905
head -3.705092 8.152966 -3.111408
rwrist 5.183901
lfingers 7.125020
rtoes 11.522047
lowerback -4.455978 -6.224283 4.668797
rfingers 7.125020
lclavicle -0.000000 0.000000
upperneck -13.740459 16.463598 -5.276007
rfemur -6.944674 15.424376 20.165199
thorax -3.418556 -3.978972 2.539942
rclavicle -0.000000 0.000000
rtibia 49.097118
lfoot 13.263107 19.805357
lhumerus 84.252693 35.187473 48.175766
rthumb -12.346079 -81.272789
root 44.370796 17.726717 -0.441155 563.721802 100.208923 -150.210419
ltoes 9.818898
lfemur -31.006420 -7.435713 -21.880444
66
upperback -6.331710 -8.116530 5.539990
rfoot -33.936901 -14.168800
lradius 18.689699
lthumb -3.339330 56.566002
rradius 21.519699
lwrist -29.652901
rhand -39.375500 -52.324799
rhumerus -79.369904 -31.707300 8.318010
lowerneck 0.716874 12.281500 5.566190
lhand -30.022699 26.612499
ltibia 76.121597
head -4.186930 8.154510 -3.446610
rwrist 5.662750
lfingers 7.125020
rtoes 11.642800
lowerback -5.084350 -6.320650 5.004210
rfingers 7.125020
lclavicle -0.000000 0.000000
upperneck -15.261100 16.439100 -5.957510
rfemur -6.946520 14.932500 20.960400
thorax -3.643190 -4.011730 2.820610
rclavicle -0.000000 0.000000
rtibia 48.849300
lfoot 10.979700 18.136101
lhumerus 82.524597 36.071301 45.698200
rthumb -12.365700 -81.939102
root 44.442135 17.720064 -0.339572 563.210999 99.553398 -151.201996
ltoes 6.869380
lfemur -30.107401 -7.842480 -20.992300
67
upperback -6.219559 -8.762625 5.489933
rfoot -34.436630 -13.059867
lradius 18.897587
lthumb -13.207133 60.164322
rradius 21.373608
lwrist -32.214031
rhand -40.133884 -53.957428
rhumerus -82.116554 -31.916697 11.232307
lowerneck 0.277093 12.567029 6.584021
lhand -40.248276 30.603228
ltibia 76.899826
head -2.832602 8.313311 -3.882828
rwrist 4.408132
lfingers 7.125020
rtoes 11.190198
lowerback -5.752324 -6.766403 4.809702
rfingers 7.125020
lclavicle -0.000000 0.000000
upperneck -12.398498 16.626741 -7.642175
rfemur -6.370682 11.232437 22.102621
thorax -3.125500 -4.323106 2.764416
rclavicle -0.000000 0.000000
rtibia 48.638268
lfoot 12.350458 17.021816
lhumerus 78.165833 36.813335 41.573841
rthumb -13.096817 -83.526184
root 44.541981 17.671827 -0.066834 568.910095 96.696846 -145.644714
ltoes 7.160705
lfemur -30.910770 -9.322193 -19.012051
68
upperback -5.824513 -8.472828 4.774916
rfoot -33.732033 -11.749292
lradius 19.014074
lthumb -18.437113 65.414124
rradius 21.761868
lwrist -34.949158
rhand -40.548809 -56.125584
rhumerus -81.659615 -32.109570 15.796327
lowerneck -0.968900 12.829102 8.781818
lhand -45.679203 36.267872
ltibia 77.433762
head 0.684050 8.531545 -4.434393
rwrist 1.550935
lfingers 7.125020
rtoes 10.720190
lowerback -5.770959 -6.493802 5.158698
rfingers 7.125020
lclavicle 0.000000 -0.000000
upperneck -3.888041 17.052254 -10.138890
rfemur -7.489646 4.895922 24.373215
thorax -2.862519 -4.207352 1.822002
rclavicle 0.000000 -0.000000
rtibia 48.343876
lfoot 13.134749 12.486494
lhumerus 72.245667 39.146034 38.454563
rthumb -13.496759 -85.668228
root 44.590893 17.676208 0.229976 586.776550 91.908691 -129.137054
ltoes 8.009633
lfemur -33.180210 -12.643840 -14.334275
69
upperback -3.738462 -6.660558 1.941056
rfoot -33.405159 -12.579919
lradius 19.481833
lthumb -17.409517 70.908188
rradius 21.840199
lwrist -27.751869
rhand -42.329414 -59.501312
rhumerus -75.533905 -33.949524 19.718773
lowerneck -3.983823 12.276361 10.332573
lhand -44.611217 41.667862
ltibia 75.428833
head 4.720751 8.280141 -3.741859
rwrist -0.416223
lfingers 7.125020
rtoes 12.363487
lowerback -4.734651 -4.993570 3.942495
rfingers 7.125020
lclavicle -0.000000 -0.000000
upperneck 7.647729 16.927166 -10.593723
rfemur -9.461629 -1.485430 27.356565
thorax -1.432344 -3.341257 -0.407307
rclavicle -0.000000 -0.000000
rtibia 46.459480
lfoot 12.971947 8.878328
lhumerus 48.282848 41.590477 20.652416
rthumb -15.212476 -88.922028
root 44.485065 17.729248 0.479861 728.939026 95.945381 10.834647
ltoes 1.654184
lfemur -36.676899 -19.213963 -9.345632
70
upperback -1.666311 -2.776912 -2.620487
rfoot -32.198292 -14.764854
lradius 19.746672
lthumb -14.296586 72.242271
rradius 22.275623
lwrist -23.399529
rhand -43.375084 -56.997696
rhumerus -59.220287 -37.784348 13.760268
lowerneck -6.316282 10.874168 9.935902
lhand -41.378681 42.754547
ltibia 73.054092
head 6.624321 7.385550 -2.125217
rwrist 1.493161
lfingers 7.125020
rtoes 13.850498
lowerback -1.401759 -2.081761 2.433008
rfingers 7.125020
lclavicle 0.000000 0.000000
upperneck 14.533705 14.782202 -5.683946
rfemur -13.707089 -5.114630 31.279146
thorax -1.172913 -1.423097 -4.066484
rclavicle 0.000000 0.000000
rtibia 44.415951
lfoot 12.768479 7.505932
lhumerus 21.673279 35.357002 5.875607
rthumb -16.219563 -86.339195
root 44.238113 17.833635 0.735111 738.473450 102.671509 16.983286
ltoes -2.542967
lfemur -42.627419 -24.070469 -3.440665
71
upperback -0.566258 1.537750 -6.969630
rfoot -29.620600 -18.672501
lradius 19.250700
lthumb -10.387600 70.257004
rradius 21.455200
lwrist -23.444401
rhand -43.147202 -55.646400
rhumerus -29.821199 -45.062302 -2.732690
lowerneck -5.526810 8.146900 9.012510
lhand -37.324402 40.533600
ltibia 70.059799
head 6.995180 5.950830 -0.219586
rwrist 6.176480
lfingers 7.125020
rtoes 15.375900
lowerback 0.417807 1.029030 2.490660
rfingers 7.125020
lclavicle -0.000000 0.000000
upperneck 18.462601 10.512700 1.176270
rfemur -19.028999 -4.112480 36.014301
thorax -0.564825 0.824122 -8.729210
rclavicle -0.000000 0.000000
rtibia 40.618999
lfoot 13.573700 5.053060
lhumerus 0.458443 30.015499 4.389480
rthumb -16.000099 -85.005699
root 43.931118 18.037584 0.981601 747.736023 108.038002 21.476900
ltoes -3.147920
lfemur -50.410999 -25.758400 4.788510
72
upperback 0.507532 4.230669 -8.324180
rfoot -29.644251 -19.803078
lradius 17.451366
lthumb -3.498615 68.625908
rradius 24.908796
lwrist -27.498171
rhand -41.339081 -55.353352
rhumerus 9.448424 -25.712994 -28.635223
lowerneck -6.637879 4.740246 5.879721
lhand -30.187567 38.675163
ltibia 69.650810
head 7.990670 4.088259 2.117396
rwrist -0.754683
lfingers 7.125020
rtoes 17.661678
lowerback 1.175443 2.908894 3.670314
rfingers 7.125020
lclavicle 0.000000 -0.000000
upperneck 22.370203 5.234012 7.791406
rfemur -22.534897 -6.854448 40.446346
thorax 0.777214 2.320227 -10.916457
rclavicle 0.000000 -0.000000
rtibia 37.900688
lfoot 14.370758 6.130493
lhumerus -19.578714 31.717947 7.612567
rthumb -14.258348 -84.843712
root 43.632168 18.061642 1.176363 750.884827 115.800224 22.158640
ltoes -1.997679
lfemur -58.422146 -29.223322 12.760100
73
upperback 1.636123 6.751215 -8.269567
rfoot -29.917229 -22.748787
lradius 16.494699
lthumb 5.849207 60.044632
rradius 31.578815
lwrist -26.964186
rhand -34.462677 -19.508883
rhumerus 33.267986 5.237641 -31.609961
lowerneck -8.750174 0.544880 -0.546957
lhand -20.508123 30.146132
ltibia 68.863663
head 9.106961 1.670144 5.874554
rwrist -17.754274
lfingers 7.125020
rtoes 18.673346
lowerback 1.828588 4.698228 3.567665
rfingers 7.125020
lclavicle 0.000000 -0.000000
upperneck 24.084246 -1.314425 16.682743
rfemur -26.301788 -10.035276 45.802238
thorax 2.122305 3.708311 -10.718847
rclavicle 0.000000 -0.000000
rtibia 36.145786
lfoot 17.188358 3.841675
lhumerus -33.637199 30.495909 10.749657
rthumb -7.626117 -49.350307
root 43.641376 18.022196 1.401675 751.726990 125.419235 20.935802
ltoes -0.426611
lfemur -66.728333 -30.857044 21.237522
74
upperback 2.548255 8.663385 -8.508155
rfoot -31.282410 -24.649580
lradius 15.049103
lthumb 15.811778 48.664997
rradius 34.046959
lwrist -27.708086
rhand -15.515938 -11.140931
rhumerus 53.641357 14.844315 -37.671993
lowerneck -8.060440 -2.485188 -1.040529
lhand -10.178437 19.291027
ltibia 68.630020
head 9.126203 0.045266 7.109396
rwrist -4.357288
lfingers 7.125020
rtoes 19.335991
lowerback 3.485405 5.991517 4.006288
rfingers 7.125020
lclavicle -0.000000 -0.000000
upperneck 22.626503 -5.783335 21.053564
rfemur -32.188065 -14.928407 52.676559
thorax 2.681780 4.792849 -11.299240
rclavicle -0.000000 -0.000000
rtibia 35.527245
lfoot 18.567118 1.260625
lhumerus -37.787453 27.658422 19.241125
rthumb 10.667027 -40.849697
root 43.902775 17.909380 1.663383 752.980164 136.532974 19.027706
ltoes 1.762760
lfemur -76.105461 -30.289164 29.528028
